<?xml version="1.0" encoding="UTF-8"?>
<!DOCTYPE svg PUBLIC "-//W3C//DTD SVG 1.1//EN" "http://www.w3.org/Graphics/SVG/1.1/DTD/svg11.dtd">
<svg xmlns="http://www.w3.org/2000/svg" version="1.1" width="1024px" height="1024px" style="shape-rendering:geometricPrecision; text-rendering:geometricPrecision; image-rendering:optimizeQuality; fill-rule:evenodd; clip-rule:evenodd" xmlns:xlink="http://www.w3.org/1999/xlink">
<g><path style="opacity:1" fill="#fefefe" d="M -0.5,-0.5 C 340.833,-0.5 682.167,-0.5 1023.5,-0.5C 1023.5,340.833 1023.5,682.167 1023.5,1023.5C 682.167,1023.5 340.833,1023.5 -0.5,1023.5C -0.5,682.167 -0.5,340.833 -0.5,-0.5 Z"/></g>
<g><path style="opacity:1" fill="#28edfa" d="M 324.5,230.5 C 421.834,230.333 519.167,230.5 616.5,231C 617.5,231.333 618.5,231.667 619.5,232C 657.973,270.806 696.473,309.64 735,348.5C 735.419,349.672 736.085,350.672 737,351.5C 737.667,476.5 737.667,601.5 737,726.5C 731.131,751.036 715.964,766.202 691.5,772C 569.167,772.667 446.833,772.667 324.5,772C 296.129,763.95 281.629,745.117 281,715.5C 280.333,569.833 280.333,424.167 281,278.5C 285.299,253.043 299.799,237.043 324.5,230.5 Z"/></g>
<g><path style="opacity:1" fill="#fefefe" d="M 645.5,363.5 C 666.994,364.497 688.66,364.831 710.5,364.5C 710.5,481.5 710.5,598.5 710.5,715.5C 709.62,731.206 701.62,741.04 686.5,745C 567.5,745.667 448.5,745.667 329.5,745C 319.333,741.5 312.5,734.667 309,724.5C 307.341,576.534 307.008,428.534 308,280.5C 311.071,267.429 319.237,259.929 332.5,258C 420.833,257.5 509.166,257.333 597.5,257.5C 597.333,276.836 597.5,296.17 598,315.5C 602.04,343.295 617.873,359.295 645.5,363.5 Z"/></g>
<g><path style="opacity:1" fill="#fbfefd" d="M 624.5,276.5 C 644.866,296.2 664.866,316.2 684.5,336.5C 635.716,345.716 615.716,325.716 624.5,276.5 Z"/></g>
<g><path style="opacity:1" fill="#2aeefa" d="M 372.5,384.5 C 396.858,383.019 411.025,394.353 415,418.5C 415.667,428.167 415.667,437.833 415,447.5C 411.512,472.99 397.012,484.157 371.5,481C 356.621,476.772 348.121,466.939 346,451.5C 343.457,436.325 344.124,421.325 348,406.5C 352.311,394.68 360.478,387.347 372.5,384.5 Z"/></g>
<g><path style="opacity:1" fill="#26edfa" d="M 427.5,386.5 C 445.17,386.333 462.836,386.5 480.5,387C 481.833,392 481.833,397 480.5,402C 468.838,402.5 457.171,402.667 445.5,402.5C 445.5,410.167 445.5,417.833 445.5,425.5C 455.839,425.334 466.172,425.5 476.5,426C 477.833,431.333 477.833,436.667 476.5,442C 466.172,442.5 455.839,442.666 445.5,442.5C 445.667,454.505 445.5,466.505 445,478.5C 439.333,479.833 433.667,479.833 428,478.5C 427.5,447.835 427.333,417.168 427.5,386.5 Z"/></g>
<g><path style="opacity:1" fill="#2dedfa" d="M 556.5,385.5 C 574.17,385.333 591.836,385.5 609.5,386C 610,386.5 610.5,387 611,387.5C 611.802,392.419 611.635,397.252 610.5,402C 598.171,402.5 585.838,402.667 573.5,402.5C 573.5,409.833 573.5,417.167 573.5,424.5C 584.505,424.333 595.505,424.5 606.5,425C 608.987,430.227 608.987,435.56 606.5,441C 595.505,441.5 584.505,441.667 573.5,441.5C 573.5,448.5 573.5,455.5 573.5,462.5C 586.582,461.864 599.415,462.531 612,464.5C 612.667,468.833 612.667,473.167 612,477.5C 611.5,478 611,478.5 610.5,479C 592.26,479.825 574.093,479.659 556,478.5C 555.175,447.428 555.342,416.428 556.5,385.5 Z"/></g>
<g><path style="opacity:1" fill="#29edfa" d="M 631.5,385.5 C 642.549,385.15 653.549,385.65 664.5,387C 674.991,389.491 681.491,395.991 684,406.5C 687.96,422.742 683.127,435.408 669.5,444.5C 676.222,455.606 681.556,467.273 685.5,479.5C 679.491,479.666 673.491,479.499 667.5,479C 661.719,468.272 656.385,457.438 651.5,446.5C 648.167,446.5 644.833,446.5 641.5,446.5C 641.5,457.5 641.5,468.5 641.5,479.5C 635.575,479.808 629.741,479.475 624,478.5C 623.5,447.835 623.333,417.168 623.5,386.5C 626.385,386.806 629.052,386.473 631.5,385.5 Z"/></g>
<g><path style="opacity:1" fill="#34eefa" d="M 521.5,385.5 C 528.841,385.334 536.174,385.5 543.5,386C 544,386.5 544.5,387 545,387.5C 545.667,392.167 545.667,396.833 545,401.5C 533.247,402.488 521.414,402.821 509.5,402.5C 509.5,410.167 509.5,417.833 509.5,425.5C 519.839,425.334 530.172,425.5 540.5,426C 541.833,431.333 541.833,436.667 540.5,442C 530.172,442.5 519.839,442.666 509.5,442.5C 509.667,454.505 509.5,466.505 509,478.5C 503,479.833 497,479.833 491,478.5C 490.333,448.167 490.333,417.833 491,387.5C 501.265,386.844 511.432,386.178 521.5,385.5 Z"/></g>
<g><path style="opacity:1" fill="#b0f7fb" d="M 645.5,363.5 C 667.5,363.5 689.5,363.5 711.5,363.5C 711.833,481.001 711.5,598.335 710.5,715.5C 710.5,598.5 710.5,481.5 710.5,364.5C 688.66,364.831 666.994,364.497 645.5,363.5 Z"/></g>
<g><path style="opacity:1" fill="#fdfefe" d="M 375.5,401.5 C 388.389,401.216 395.555,407.549 397,420.5C 398.039,431.617 397.372,442.617 395,453.5C 389.902,463.737 382.068,466.57 371.5,462C 365.969,456.759 363.135,450.259 363,442.5C 362.059,432.387 362.725,422.387 365,412.5C 367.357,407.645 370.857,403.979 375.5,401.5 Z"/></g>
<g><path style="opacity:1" fill="#fcfefe" d="M 641.5,402.5 C 647.176,402.334 652.843,402.501 658.5,403C 664.053,405.263 666.72,409.43 666.5,415.5C 666.862,420.256 665.196,424.089 661.5,427C 654.95,428.42 648.284,428.92 641.5,428.5C 641.5,419.833 641.5,411.167 641.5,402.5 Z"/></g>
<g><path style="opacity:1" fill="#2aedfa" d="M 359.5,531.5 C 455.834,531.333 552.167,531.5 648.5,532C 656.815,537.447 658.648,544.613 654,553.5C 651.742,555.43 649.242,556.93 646.5,558C 552.99,558.178 459.49,558.678 366,559.5C 351.693,558.21 347.026,550.876 352,537.5C 354.114,534.879 356.614,532.879 359.5,531.5 Z"/></g>
<g><path style="opacity:1" fill="#29edfa" d="M 360.5,597.5 C 431.834,597.333 503.167,597.5 574.5,598C 583.762,602.922 585.929,610.089 581,619.5C 579.269,621.617 577.102,623.117 574.5,624C 502.833,624.667 431.167,624.667 359.5,624C 350.937,619.995 348.437,613.495 352,604.5C 354.416,601.577 357.25,599.243 360.5,597.5 Z"/></g>
<g><path style="opacity:1" fill="#28edfa" d="M 359.5,663.5 C 415.168,663.333 470.834,663.5 526.5,664C 532.952,665.623 536.285,669.79 536.5,676.5C 536.309,682.724 533.309,686.89 527.5,689C 470.833,689.667 414.167,689.667 357.5,689C 349.766,684.136 347.933,677.636 352,669.5C 354.114,666.879 356.614,664.879 359.5,663.5 Z"/></g>
</svg>
