<?xml version="1.0" encoding="UTF-8"?>
<svg version="1.1" xmlns="http://www.w3.org/2000/svg" xmlns:xlink="http://www.w3.org/1999/xlink"
     width="32" height="32" viewBox="0 0 1024 1024">
  <path fill="#4A90E2" opacity="0.9" stroke="#2171C7" stroke-width="1"
        d="M653.000000,1025.000000 
        C435.333344,1025.000000 218.166672,1025.000000 1.000000,1025.000000 
        C1.000000,683.666687 1.000000,342.333344 1.000000,1.000000 
        C342.333344,1.000000 683.666687,1.000000 1025.000000,1.000000 
        C1025.000000,342.333344 1025.000000,683.666687 1025.000000,1025.000000 
        C901.166687,1025.000000 777.333313,1025.000000 653.000000,1025.000000 
        M281.302734,545.500000 
        C281.302155,609.831177 281.218811,674.162659 281.426819,738.493164 
        C281.448059,745.054504 282.375458,751.874023 284.331177,758.120117 
        C290.776886,778.706299 312.255890,794.160828 334.910400,794.108521 
        C449.073273,793.844727 563.237122,793.945374 677.400574,794.024292 
        C704.100220,794.042786 732.881409,771.734009 732.875305,739.276428 
        C732.851746,613.779907 732.867126,488.283417 732.877441,362.786896 
        C732.878052,355.258301 730.445679,348.844299 724.893066,343.568146 
        C715.966431,335.086060 707.140381,326.496185 698.364502,317.857758 
        C672.837097,292.730255 647.351807,267.560028 621.859985,242.396454 
        C617.480042,238.072937 612.735474,234.939178 606.135498,234.945389 
        C515.471375,235.030624 424.807098,234.956299 334.143341,235.146759 
        C328.781952,235.158020 323.145691,236.349579 318.112732,238.250595 
        C293.986816,247.363312 281.345490,266.003784 281.330566,292.007141 
        C281.282288,376.171387 281.306488,460.335724 281.302734,545.500000 
        z"/>
  <path fill="#3CFDFD" opacity="1.000000" stroke="none" 
        d="
        M281.302734,545.000000 
        C281.306488,460.335724 281.282288,376.171387 281.330566,292.007141 
        C281.345490,266.003784 293.986816,247.363312 318.112732,238.250595 
        C323.145691,236.349579 328.781952,235.158020 334.143341,235.146759 
        C424.807098,234.956299 515.471375,235.030624 606.135498,234.945389 
        C612.735474,234.939178 617.480042,238.072937 621.859985,242.396454 
        C647.351807,267.560028 672.837097,292.730255 698.364502,317.857758 
        C707.140381,326.496185 715.966431,335.086060 724.893066,343.568146 
        C730.445679,348.844299 732.878052,355.258301 732.877441,362.786896 
        C732.867126,488.283417 732.851746,613.779907 732.875305,739.276428 
        C732.881409,771.734009 704.100220,794.042786 677.400574,794.024292 
        C563.237122,793.945374 449.073273,793.844727 334.910400,794.108521 
        C312.255890,794.160828 290.776886,778.706299 284.331177,758.120117 
        C282.375458,751.874023 281.448059,745.054504 281.426819,738.493164 
        C281.218811,674.162659 281.302155,609.831177 281.302734,545.000000 
        M704.894775,701.500000 
        C704.894775,591.438171 704.894775,481.376343 704.894775,370.985718 
        C702.316956,370.985718 700.664062,370.985626 699.011169,370.985748 
        C680.512878,370.987335 662.014587,370.999207 643.516296,370.975708 
        C641.524841,370.973206 639.503906,370.945770 637.546814,370.624390 
        C611.643494,366.371216 594.178467,343.140778 594.886719,319.231903 
        C595.389832,302.248138 594.803833,285.234100 595.129944,268.241791 
        C595.227417,263.166260 593.819641,261.859009 588.737183,261.869019 
        C505.078522,262.033936 421.419434,261.979675 337.760437,261.989960 
        C318.315399,261.992340 308.960083,271.339722 308.960541,290.656555 
        C308.964050,439.976166 309.095398,589.296082 308.774963,738.614990 
        C308.740723,754.562927 319.875763,766.213867 336.424072,766.168640 
        C450.245972,765.857361 564.069153,765.997925 677.891907,766.013428 
        C694.795776,766.015686 704.850281,756.032654 704.896912,738.996643 
        C704.930176,726.831177 704.897949,714.665527 704.894775,701.500000 
        M652.007751,309.492340 
        C641.843323,299.045197 631.678955,288.598083 621.514587,278.150970 
        C621.081970,278.452881 620.649353,278.754791 620.216797,279.056702 
        C620.125061,280.818878 619.955811,282.580963 619.954163,284.343201 
        C619.943604,295.834839 619.938782,307.326599 619.990784,318.818054 
        C620.063110,334.788849 630.227844,344.897614 646.308716,344.966553 
        C658.632812,345.019409 670.957275,344.994659 683.281555,344.965088 
        C684.285706,344.962677 685.289124,344.656036 686.929077,344.386017 
        C675.100525,332.568024 663.803406,321.281006 652.007751,309.492340 
        z"/>
  <path fill="#FDFFFF" opacity="1.000000" stroke="none" 
        d="
        M704.894897,702.000000 
        C704.897949,714.665527 704.930176,726.831177 704.896912,738.996643 
        C704.850281,756.032654 694.795776,766.015686 677.891907,766.013428 
        C564.069153,765.997925 450.245972,765.857361 336.424072,766.168640 
        C319.875763,766.213867 308.740723,754.562927 308.774963,738.614990 
        C309.095398,589.296082 308.964050,439.976166 308.960541,290.656555 
        C308.960083,271.339722 318.315399,261.992340 337.760437,261.989960 
        C421.419434,261.979675 505.078522,262.033936 588.737183,261.869019 
        C593.819641,261.859009 595.227417,263.166260 595.129944,268.241791 
        C594.803833,285.234100 595.389832,302.248138 594.886719,319.231903 
        C594.178467,343.140778 611.643494,366.371216 637.546814,370.624390 
        C639.503906,370.945770 641.524841,370.973206 643.516296,370.975708 
        C662.014587,370.999207 680.512878,370.987335 699.011169,370.985748 
        C700.664062,370.985626 702.316956,370.985718 704.894775,370.985718 
        C704.894775,481.376343 704.894775,591.438171 704.894897,702.000000 
        M505.500000,536.997437 
        C458.701050,536.998535 411.901733,536.919312 365.103943,537.154480 
        C361.396423,537.173096 357.202240,538.636902 354.111328,540.726379 
        C349.103577,544.111694 347.675171,550.927734 349.671448,556.418884 
        C352.243042,563.492493 357.550995,566.953735 365.962860,566.953979 
        C461.226135,566.956848 556.489380,566.953857 651.752686,566.942566 
        C661.445862,566.941406 669.085083,560.326965 668.923767,551.966858 
        C668.764526,543.715271 661.124451,536.764343 651.891907,536.832397 
        C603.430176,537.189941 554.964355,536.998291 505.500000,536.997437 
        M392.500000,607.009705 
        C383.000732,607.013062 373.500031,606.913696 364.002655,607.049683 
        C355.151978,607.176392 348.873352,613.405518 348.981476,621.654785 
        C349.096161,630.409424 355.587280,635.983398 365.876892,635.987061 
        C431.870850,636.010681 497.864807,636.012817 563.858765,635.997437 
        C573.103882,635.995300 579.224304,630.075012 579.206421,621.317932 
        C579.188904,612.741211 572.888550,607.017456 563.484680,607.017334 
        C506.823120,607.016724 450.161560,607.012878 392.500000,607.009705 
        M349.186157,692.927307 
        C352.373474,701.771667 356.324005,705.050415 364.119049,705.052063 
        C417.590790,705.063293 471.062653,704.998291 524.534180,705.098572 
        C530.449707,705.109680 534.384888,702.327148 537.137512,697.676880 
        C543.102173,687.600403 535.847412,676.064270 523.526184,676.049072 
        C470.554199,675.983948 417.582184,675.983215 364.610168,676.005859 
        C354.791168,676.010071 349.078735,682.040466 349.186157,692.927307 
        M633.484253,398.129883 
        C628.987915,398.124756 624.490417,398.053528 619.995544,398.130707 
        C613.961121,398.234283 613.007385,399.209045 613.004333,405.090210 
        C612.990967,431.070160 612.991333,457.050140 612.992676,483.030090 
        C612.993164,493.307434 613.000244,493.307404 623.351685,493.139679 
        C629.964111,493.032532 629.998230,493.003571 630.003479,486.384766 
        C630.010864,477.058624 629.933289,467.731201 630.093506,458.407806 
        C630.117371,457.018433 631.233337,454.499481 631.857971,454.495117 
        C633.414429,454.484192 635.087769,455.453613 636.496033,456.366089 
        C637.238892,456.847412 637.518433,458.037384 638.018982,458.900543 
        C643.856445,468.967957 649.594788,479.095581 655.631104,489.042358 
        C656.687256,490.782715 658.861877,492.605194 660.759277,492.912750 
        C664.490601,493.517517 668.393372,493.183105 672.219055,493.054413 
        C676.127014,492.922913 676.674622,490.719604 675.083801,487.649750 
        C673.861755,485.291504 672.440125,483.036041 671.092651,480.743500 
        C665.562378,471.334137 660.026550,461.928040 654.316528,452.221100 
        C662.114563,447.805603 667.265259,442.048340 669.510559,433.869110 
        C673.875549,417.967834 666.483093,403.006927 651.817444,399.558899 
        C646.233276,398.246033 640.266907,398.558533 633.484253,398.129883 
        M398.737213,402.644165 
        C382.439301,392.940125 364.609283,396.695953 355.164734,412.932983 
        C343.752838,432.552307 343.978363,453.391693 352.555328,473.896790 
        C358.789734,488.801483 369.252350,495.058075 383.742004,493.948700 
        C398.199738,492.841736 406.129211,483.502502 411.053894,470.940094 
        C416.256897,457.667786 416.186493,443.877045 413.957520,430.128784 
        C412.245819,419.571259 407.877014,410.103424 398.737213,402.644165 
        M589.478394,475.192047 
        C583.979004,475.198242 578.473877,475.055511 572.982178,475.263702 
        C569.401184,475.399475 567.719604,474.265198 567.926697,470.453400 
        C568.143372,466.465942 568.125793,462.448822 567.917419,458.459991 
        C567.719299,454.667267 569.436951,453.482544 572.992126,453.582794 
        C578.653381,453.742310 584.322815,453.605286 589.988770,453.608551 
        C600.790894,453.614777 601.527405,452.771820 601.037842,441.885162 
        C600.855469,437.829620 599.310913,435.796143 594.936584,435.927917 
        C587.610413,436.148651 580.270020,435.880707 572.942688,436.080750 
        C569.379517,436.178009 567.644470,435.134705 567.899963,431.296082 
        C568.131836,427.811462 568.122253,424.290863 567.922852,420.803070 
        C567.723206,417.309296 569.248474,415.983704 572.597778,416.017548 
        C579.929504,416.091644 587.262512,416.033905 594.594971,416.042358 
        C604.921448,416.054260 605.044739,415.930634 604.820496,405.391479 
        C604.695007,399.495239 603.541321,398.236328 597.864563,398.206512 
        C584.366455,398.135559 570.866333,398.244629 557.370850,398.035767 
        C553.063293,397.969147 551.212585,399.716278 551.213806,403.859467 
        C551.222046,431.856201 551.227234,459.852936 551.207397,487.849670 
        C551.205078,491.178131 552.263550,493.191406 556.072693,493.200317 
        C570.560364,493.234253 585.047668,493.460938 599.535400,493.498810 
        C603.088196,493.508118 604.809875,491.624725 604.966248,487.850952 
        C605.479065,475.473511 605.323547,475.212097 592.967163,475.199982 
        C592.133911,475.199158 591.300720,475.196014 589.478394,475.192047 
        M427.116089,468.499969 
        C427.111664,472.999329 427.036285,477.499939 427.116638,481.997772 
        C427.328003,493.831543 425.118347,493.037628 438.440826,493.195709 
        C442.984863,493.249634 444.146484,491.435669 444.053772,487.255981 
        C443.846802,477.929077 444.167603,468.590179 443.945160,459.264008 
        C443.848297,455.202789 445.054321,453.586609 449.308929,453.777374 
        C456.127869,454.083069 462.970337,453.828369 469.801788,453.903931 
        C474.304321,453.953705 476.660797,451.918060 476.676086,447.342682 
        C476.681641,445.676422 476.742676,444.009430 476.708344,442.344177 
        C476.618103,437.967651 474.902039,435.703217 469.980499,435.955475 
        C462.833649,436.321747 455.652100,435.951782 448.489777,436.104034 
        C445.366333,436.170441 443.820526,435.254791 443.981232,431.876404 
        C444.163116,428.052307 444.156738,424.207001 443.984436,420.382080 
        C443.838165,417.136536 445.140259,415.926025 448.367371,415.988403 
        C455.696838,416.130157 463.032806,416.147095 470.362518,416.014862 
        C482.489716,415.796112 482.063812,418.698608 482.051208,403.618988 
        C482.048065,399.861420 480.495819,398.135559 476.668793,398.153168 
        C462.338257,398.219147 448.006989,398.224152 433.676544,398.148468 
        C428.911743,398.123322 426.969360,399.899017 427.030457,405.011353 
        C427.279205,425.838287 427.124420,446.670013 427.116089,468.499969 
        M490.031647,452.500000 
        C490.018646,462.495117 489.999023,472.490265 489.994385,482.485382 
        C489.988861,494.305298 489.171753,492.887451 500.870544,493.197632 
        C505.594910,493.322876 507.020599,491.406494 506.951813,487.027557 
        C506.800110,477.368195 507.017426,467.703003 506.863464,458.043732 
        C506.811157,454.764343 507.945587,453.682251 511.202850,453.776642 
        C518.526978,453.988800 525.866882,453.698669 533.187744,453.963074 
        C537.866394,454.132080 540.096069,452.642517 540.564453,447.642944 
        C541.468994,437.986053 540.089905,436.065125 530.645264,436.043915 
        C522.889587,436.026489 515.133850,436.040375 506.905396,436.040375 
        C506.905396,430.338104 507.023956,425.366608 506.862793,420.404175 
        C506.758972,417.207336 507.908295,415.914276 511.201904,415.992218 
        C518.361145,416.161682 525.526978,416.067810 532.690125,416.057495 
        C541.428101,416.044922 541.620483,415.843353 541.672546,407.117340 
        C541.676514,406.451111 541.694031,405.782867 541.653320,405.118774 
        C541.283325,399.088409 540.472229,398.200714 534.470459,398.168579 
        C521.810669,398.100739 509.148712,398.266846 496.490845,398.096497 
        C491.813904,398.033600 489.938202,399.703552 489.994904,404.524139 
        C490.179108,420.180756 490.044098,435.841095 490.031647,452.500000 
        z"/>
  <path fill="#F8FFFE" opacity="1.000000" stroke="none" 
        d="
        M652.257019,309.743164 
        C663.803406,321.281006 675.100525,332.568024 686.929077,344.386017 
        C685.289124,344.656036 684.285706,344.962677 683.281555,344.965088 
        C670.957275,344.994659 658.632812,345.019409 646.308716,344.966553 
        C630.227844,344.897614 620.063110,334.788849 619.990784,318.818054 
        C619.938782,307.326599 619.943604,295.834839 619.954163,284.343201 
        C619.955811,282.580963 620.125061,280.818878 620.216797,279.056702 
        C620.649353,278.754791 621.081970,278.452881 621.514587,278.150970 
        C631.678955,288.598083 641.843323,299.045197 652.257019,309.743164 
        z"/>
  <path fill="#3CFDFE" opacity="1.000000" stroke="none" 
        d="
        M506.000000,536.997437 
        C554.964355,536.998291 603.430176,537.189941 651.891907,536.832397 
        C661.124451,536.764343 668.764526,543.715271 668.923767,551.966858 
        C669.085083,560.326965 661.445862,566.941406 651.752686,566.942566 
        C556.489380,566.953857 461.226135,566.956848 365.962860,566.953979 
        C357.550995,566.953735 352.243042,563.492493 349.671448,556.418884 
        C347.675171,550.927734 349.103577,544.111694 354.111328,540.726379 
        C357.202240,538.636902 361.396423,537.173096 365.103943,537.154480 
        C411.901733,536.919312 458.701050,536.998535 506.000000,536.997437 
        z"/>
  <path fill="#3CFCFD" opacity="1.000000" stroke="none" 
        d="
        M393.000000,607.009888 
        C450.161560,607.012878 506.823120,607.016724 563.484680,607.017334 
        C572.888550,607.017456 579.188904,612.741211 579.206421,621.317932 
        C579.224304,630.075012 573.103882,635.995300 563.858765,635.997437 
        C497.864807,636.012817 431.870850,636.010681 365.876892,635.987061 
        C355.587280,635.983398 349.096161,630.409424 348.981476,621.654785 
        C348.873352,613.405518 355.151978,607.176392 364.002655,607.049683 
        C373.500031,606.913696 383.000732,607.013062 393.000000,607.009888 
        z"/>
  <path fill="#3CFDFD" opacity="1.000000" stroke="none" 
        d="
        M349.130341,692.522827 
        C349.078735,682.040466 354.791168,676.010071 364.610168,676.005859 
        C417.582184,675.983215 470.554199,675.983948 523.526184,676.049072 
        C535.847412,676.064270 543.102173,687.600403 537.137512,697.676880 
        C534.384888,702.327148 530.449707,705.109680 524.534180,705.098572 
        C471.062653,704.998291 417.590790,705.063293 364.119049,705.052063 
        C356.324005,705.050415 352.373474,701.771667 349.130341,692.522827 
        z"/>
  <path fill="#40FCFC" opacity="1.000000" stroke="none" 
        d="
        M633.979492,398.130066 
        C640.266907,398.558533 646.233276,398.246033 651.817444,399.558899 
        C666.483093,403.006927 673.875549,417.967834 669.510559,433.869110 
        C667.265259,442.048340 662.114563,447.805603 654.316528,452.221100 
        C660.026550,461.928040 665.562378,471.334137 671.092651,480.743500 
        C672.440125,483.036041 673.861755,485.291504 675.083801,487.649750 
        C676.674622,490.719604 676.127014,492.922913 672.219055,493.054413 
        C668.393372,493.183105 664.490601,493.517517 660.759277,492.912750 
        C658.861877,492.605194 656.687256,490.782715 655.631104,489.042358 
        C649.594788,479.095581 643.856445,468.967957 638.018982,458.900543 
        C637.518433,458.037384 637.238892,456.847412 636.496033,456.366089 
        C635.087769,455.453613 633.414429,454.484192 631.857971,454.495117 
        C631.233337,454.499481 630.117371,457.018433 630.093506,458.407806 
        C629.933289,467.731201 630.010864,477.058624 630.003479,486.384766 
        C629.998230,493.003571 629.964111,493.032532 623.351685,493.139679 
        C613.000244,493.307404 612.993164,493.307434 612.992676,483.030090 
        C612.991333,457.050140 612.990967,431.070160 613.004333,405.090210 
        C613.007385,399.209045 613.961121,398.234283 619.995544,398.130707 
        C624.490417,398.053528 628.987915,398.124756 633.979492,398.130066 
        M644.714233,416.250916 
        C640.905090,416.147552 637.083069,415.834717 633.294617,416.067535 
        C632.147461,416.138062 630.182129,417.680664 630.142761,418.614319 
        C629.866699,425.171082 629.996399,431.744934 629.996399,438.544464 
        C632.193237,438.653381 633.657532,438.852509 635.105896,438.770203 
        C637.740601,438.620575 640.380737,438.408783 642.991821,438.035248 
        C648.687622,437.220428 652.226318,433.532043 652.864319,427.923889 
        C653.473755,422.566711 651.037292,418.786682 644.714233,416.250916 
        z"/>
  <path fill="#40FCFC" opacity="1.000000" stroke="none" 
        d="
        M399.028503,402.861755 
        C407.877014,410.103424 412.245819,419.571259 413.957520,430.128784 
        C416.186493,443.877045 416.256897,457.667786 411.053894,470.940094 
        C406.129211,483.502502 398.199734,492.841736 383.742004,493.948700 
        C369.252350,495.058075 358.789734,488.801483 352.555328,473.896790 
        C343.978363,453.391693 343.752838,432.552307 355.164734,412.932983 
        C364.609283,396.695953 382.439301,392.940125 399.028503,402.861755 
        M398.148773,454.531219 
        C400.304871,444.390045 398.726746,434.578918 394.465912,425.386993 
        C391.900299,419.852234 387.692139,415.467529 380.551941,415.947540 
        C373.916351,416.393677 369.718597,420.219696 367.533508,426.006226 
        C362.201935,440.125366 362.111664,454.334595 368.711151,468.088257 
        C373.656128,478.393860 386.944397,479.047058 392.772217,469.220032 
        C395.252258,465.038147 396.326538,460.022583 398.148773,454.531219 
        z"/>
  <path fill="#43FCFC" opacity="1.000000" stroke="none" 
        d="
        M589.972900,475.192993 
        C591.300720,475.196014 592.133911,475.199158 592.967163,475.199982 
        C605.323547,475.212097 605.479065,475.473511 604.966248,487.850952 
        C604.809875,491.624725 603.088196,493.508118 599.535400,493.498810 
        C585.047668,493.460938 570.560364,493.234253 556.072693,493.200317 
        C552.263550,493.191406 551.205078,491.178131 551.207397,487.849670 
        C551.227234,459.852936 551.222046,431.856201 551.213806,403.859467 
        C551.212585,399.716278 553.063293,397.969147 557.370850,398.035767 
        C570.866333,398.244629 584.366455,398.135559 597.864563,398.206512 
        C603.541321,398.236328 604.695007,399.495239 604.820496,405.391479 
        C605.044739,415.930634 604.921448,416.054260 594.594971,416.042358 
        C587.262512,416.033905 579.929504,416.091644 572.597778,416.017548 
        C569.248474,415.983704 567.723206,417.309296 567.922852,420.803070 
        C568.122253,424.290863 568.131836,427.811462 567.899963,431.296082 
        C567.644470,435.134705 569.379517,436.178009 572.942688,436.080750 
        C580.270020,435.880707 587.610413,436.148651 594.936584,435.927917 
        C599.310913,435.796143 600.855469,437.829620 601.037842,441.885162 
        C601.527405,452.771820 600.790894,453.614777 589.988770,453.608551 
        C584.322815,453.605286 578.653381,453.742310 572.992126,453.582794 
        C569.436951,453.482544 567.719299,454.667267 567.917419,458.459991 
        C568.125793,462.448822 568.143372,466.465942 567.926697,470.453400 
        C567.719604,474.265198 569.401184,475.399475 572.982178,475.263702 
        C578.473877,475.055511 583.979004,475.198242 589.972900,475.192993 
        z"/>
  <path fill="#43FCFC" opacity="1.000000" stroke="none" 
        d="
        M427.117249,468.000000 
        C427.124420,446.670013 427.279205,425.838287 427.030457,405.011353 
        C426.969360,399.899017 428.911743,398.123322 433.676544,398.148468 
        C448.006989,398.224152 462.338257,398.219147 476.668793,398.153168 
        C480.495819,398.135559 482.048065,399.861420 482.051208,403.618988 
        C482.063812,418.698608 482.489716,415.796112 470.362518,416.014862 
        C463.032806,416.147095 455.696838,416.130157 448.367371,415.988403 
        C445.140259,415.926025 443.838165,417.136536 443.984436,420.382080 
        C444.156738,424.207001 444.163116,428.052307 443.981232,431.876404 
        C443.820526,435.254791 445.366333,436.170441 448.489777,436.104034 
        C455.652100,435.951782 462.833649,436.321747 469.980499,435.955475 
        C474.902039,435.703217 476.618103,437.967651 476.708344,442.344177 
        C476.742676,444.009430 476.681641,445.676422 476.676086,447.342682 
        C476.660797,451.918060 474.304321,453.953705 469.801788,453.903931 
        C462.970337,453.828369 456.127869,454.083069 449.308929,453.777374 
        C445.054321,453.586609 443.848297,455.202789 443.945160,459.264008 
        C444.167603,468.590179 443.846802,477.929077 444.053772,487.255981 
        C444.146484,491.435669 442.984863,493.249634 438.440826,493.195709 
        C425.118347,493.037628 427.328003,493.831543 427.116638,481.997772 
        C427.036285,477.499939 427.111664,472.999329 427.117249,468.000000 
        z"/>
  <path fill="#43FCFC" opacity="1.000000" stroke="none" 
        d="
        M490.031830,452.000000 
        C490.044098,435.841095 490.179108,420.180756 489.994904,404.524139 
        C489.938202,399.703552 491.813904,398.033600 496.490845,398.096497 
        C509.148712,398.266846 521.810669,398.100739 534.470459,398.168579 
        C540.472229,398.200714 541.283325,399.088409 541.653320,405.118774 
        C541.694031,405.782867 541.676514,406.451111 541.672546,407.117340 
        C541.620483,415.843353 541.428101,416.044922 532.690125,416.057495 
        C525.526978,416.067810 518.361145,416.161682 511.201904,415.992218 
        C507.908295,415.914276 506.758972,417.207336 506.862793,420.404175 
        C507.023956,425.366608 506.905396,430.338104 506.905396,436.040375 
        C515.133850,436.040375 522.889587,436.026489 530.645264,436.043915 
        C540.089905,436.065125 541.468994,437.986053 540.564453,447.642944 
        C540.096069,452.642517 537.866394,454.132080 533.187744,453.963074 
        C525.866882,453.698669 518.526978,453.988800 511.202850,453.776642 
        C507.945587,453.682251 506.811157,454.764343 506.863464,458.043732 
        C507.017426,467.703003 506.800110,477.368195 506.951813,487.027557 
        C507.020599,491.406494 505.594910,493.322876 500.870544,493.197632 
        C489.171753,492.887451 489.988861,494.305298 489.994385,482.485382 
        C489.999023,472.490265 490.018646,462.495117 490.031830,452.000000 
        z"/>
  <path fill="#F1FEFE" opacity="1.000000" stroke="none" 
        d="
        M645.111755,416.381927 
        C651.037292,418.786682 653.473755,422.566711 652.864319,427.923889 
        C652.226318,433.532043 648.687622,437.220428 642.991821,438.035248 
        C640.380737,438.408783 637.740601,438.620575 635.105896,438.770203 
        C633.657532,438.852509 632.193237,438.653381 629.996399,438.544464 
        C629.996399,431.744934 629.866699,425.171082 630.142761,418.614319 
        C630.182129,417.680664 632.147461,416.138062 633.294617,416.067535 
        C637.083069,415.834717 640.905090,416.147552 645.111755,416.381927 
        z"/>
  <path fill="#F8FFFE" opacity="1.000000" stroke="none" 
        d="
        M398.094238,454.958557 
        C396.326538,460.022583 395.252258,465.038147 392.772217,469.220032 
        C386.944397,479.047058 373.656128,478.393860 368.711151,468.088257 
        C362.111664,454.334595 362.201935,440.125366 367.533508,426.006226 
        C369.718597,420.219696 373.916351,416.393677 380.551941,415.947540 
        C387.692139,415.467529 391.900299,419.852234 394.465912,425.386993 
        C398.726746,434.578918 400.304871,444.390045 398.094238,454.958557 
        z"/>
</svg>